HIERARCHY
ROOT Hips
{
	OFFSET 0.000000 35.082581 0.000000
	CHANNELS 6 Xposition Yposition Zposition Xrotation Yrotation Zrotation 
	JOINT Spine
	{
		OFFSET 0.000000 6.876099 0.125700
		CHANNELS 3 Xrotation Yrotation Zrotation
		JOINT Spine1
		{
			OFFSET 0.000000 5.730043 0.104720
			CHANNELS 3 Xrotation Yrotation Zrotation
			JOINT Spine1_split
			{
				OFFSET 0.000000 5.730043 0.104720
				CHANNELS 3 Xrotation Yrotation Zrotation
				JOINT Spine2
				{
					OFFSET 0.000000 5.730043 0.104720
					CHANNELS 3 Xrotation Yrotation Zrotation
					JOINT Neck
					{
						OFFSET 0.000000 10.314075 0.188496
						CHANNELS 3 Xrotation Yrotation Zrotation
						JOINT Head
						{
							OFFSET 0.000000 7.643700 -2.377400
							CHANNELS 3 Xrotation Yrotation Zrotation
							JOINT HeadTop_End
							{
								OFFSET 0.000000 43.788605 -13.619600
								CHANNELS 3 Xrotation Yrotation Zrotation
								End Site
								{
									OFFSET 0.000000 0.000000 0.000000
								}
							}
						}
					}
					JOINT LeftShoulder
					{
						OFFSET 2.196100 4.412489 0.087492
						CHANNELS 3 Xrotation Yrotation Zrotation
						JOINT LeftShoulder_split
						{
							OFFSET 2.196100 4.412489 0.087492
							CHANNELS 3 Xrotation Yrotation Zrotation
							JOINT LeftArm
							{
								OFFSET 8.771219 -2.981674 -0.026999
								CHANNELS 3 Xrotation Yrotation Zrotation
								JOINT LeftForeArm
								{
									OFFSET 8.512804 0.000000 -0.000000
									CHANNELS 3 Xrotation Yrotation Zrotation
									JOINT LeftHand
									{
										OFFSET 18.484802 0.000000 -0.000000
										CHANNELS 3 Xrotation Yrotation Zrotation
										JOINT LeftHandThumb1
										{
											OFFSET 2.499420 -1.158070 2.653252
											CHANNELS 3 Xrotation Yrotation Zrotation
											JOINT LeftHandThumb2
											{
												OFFSET 2.370079 -1.368366 1.368366
												CHANNELS 3 Xrotation Yrotation Zrotation
												JOINT LeftHandThumb3
												{
													OFFSET 2.676727 -1.545410 1.545409
													CHANNELS 3 Xrotation Yrotation Zrotation
													JOINT LeftHandThumb4
													{
														OFFSET 1.692226 -0.977005 0.977007
														CHANNELS 3 Xrotation Yrotation Zrotation
														End Site
														{
															OFFSET 0.000000 0.000000 0.000000
														}
													}
												}
											}
										}
										JOINT LeftHandIndex1
										{
											OFFSET 7.924831 -0.457527 2.345128
											CHANNELS 3 Xrotation Yrotation Zrotation
											JOINT LeftHandIndex2
											{
												OFFSET 3.643303 0.000000 0.000000
												CHANNELS 3 Xrotation Yrotation Zrotation
												JOINT LeftHandIndex3
												{
													OFFSET 3.810799 0.000000 0.000000
													CHANNELS 3 Xrotation Yrotation Zrotation
													JOINT LeftHandIndex4
													{
														OFFSET 2.403702 0.000000 0.000000
														CHANNELS 3 Xrotation Yrotation Zrotation
														End Site
														{
															OFFSET 0.000000 0.000000 0.000000
														}
													}
												}
											}
										}
										JOINT LeftHandMiddle1
										{
											OFFSET 8.563995 0.000000 -0.000000
											CHANNELS 3 Xrotation Yrotation Zrotation
											JOINT LeftHandMiddle2
											{
												OFFSET 3.861618 0.000000 0.000000
												CHANNELS 3 Xrotation Yrotation Zrotation
												JOINT LeftHandMiddle3
												{
													OFFSET 3.701603 0.000000 0.000000
													CHANNELS 3 Xrotation Yrotation Zrotation
													JOINT LeftHandMiddle4
													{
														OFFSET 2.322544 0.000000 0.000000
														CHANNELS 3 Xrotation Yrotation Zrotation
														End Site
														{
															OFFSET 0.000000 0.000000 0.000000
														}
													}
												}
											}
										}
										JOINT LeftHandRing1
										{
											OFFSET 8.426460 -0.424637 -3.286992
											CHANNELS 3 Xrotation Yrotation Zrotation
											JOINT LeftHandRing2
											{
												OFFSET 3.126408 0.000000 0.000000
												CHANNELS 3 Xrotation Yrotation Zrotation
												JOINT LeftHandRing3
												{
													OFFSET 3.085026 0.000000 0.000000
													CHANNELS 3 Xrotation Yrotation Zrotation
													JOINT LeftHandRing4
													{
														OFFSET 1.644005 0.000000 0.000000
														CHANNELS 3 Xrotation Yrotation Zrotation
														End Site
														{
															OFFSET 0.000000 0.000000 0.000000
														}
													}
												}
											}
										}
									}
								}
							}
						}
					}
					JOINT RightShoulder
					{
						OFFSET -2.196100 4.412496 0.070690
						CHANNELS 3 Xrotation Yrotation Zrotation
						JOINT RightShoulder_split
						{
							OFFSET -2.196100 4.412496 0.070690
							CHANNELS 3 Xrotation Yrotation Zrotation
							JOINT RightArm
							{
								OFFSET -8.771282 -2.981682 -0.094208
								CHANNELS 3 Xrotation Yrotation Zrotation
								JOINT RightForeArm
								{
									OFFSET -8.494598 0.000000 0.000000
									CHANNELS 3 Xrotation Yrotation Zrotation
									JOINT RightHand
									{
										OFFSET -18.483803 0.000000 0.000001
										CHANNELS 3 Xrotation Yrotation Zrotation
										JOINT RightHandThumb1
										{
											OFFSET -2.527351 -1.008072 2.575253
											CHANNELS 3 Xrotation Yrotation Zrotation
											JOINT RightHandThumb2
											{
												OFFSET -2.321518 -1.340328 1.340329
												CHANNELS 3 Xrotation Yrotation Zrotation
												JOINT RightHandThumb3
												{
													OFFSET -2.657753 -1.534454 1.534455
													CHANNELS 3 Xrotation Yrotation Zrotation
													JOINT RightHandThumb4
													{
														OFFSET -1.807510 -1.043568 1.043567
														CHANNELS 3 Xrotation Yrotation Zrotation
														End Site
														{
															OFFSET 0.000000 0.000000 0.000000
														}
													}
												}
											}
										}
										JOINT RightHandIndex1
										{
											OFFSET -8.811420 0.015533 2.887987
											CHANNELS 3 Xrotation Yrotation Zrotation
											JOINT RightHandIndex2
											{
												OFFSET -3.537502 0.000000 0.000000
												CHANNELS 3 Xrotation Yrotation Zrotation
												JOINT RightHandIndex3
												{
													OFFSET -3.356201 0.000000 0.000000
													CHANNELS 3 Xrotation Yrotation Zrotation
													JOINT RightHandIndex4
													{
														OFFSET -1.933098 0.000000 0.000000
														CHANNELS 3 Xrotation Yrotation Zrotation
														End Site
														{
															OFFSET 0.000000 0.000000 0.000000
														}
													}
												}
											}
										}
										JOINT RightHandMiddle1
										{
											OFFSET -8.178135 0.000000 0.000000
											CHANNELS 3 Xrotation Yrotation Zrotation
											JOINT RightHandMiddle2
											{
												OFFSET -3.901302 0.000000 0.000000
												CHANNELS 3 Xrotation Yrotation Zrotation
												JOINT RightHandMiddle3
												{
													OFFSET -3.909599 0.000000 0.000000
													CHANNELS 3 Xrotation Yrotation Zrotation
													JOINT RightHandMiddle4
													{
														OFFSET -2.376003 0.000000 0.000000
														CHANNELS 3 Xrotation Yrotation Zrotation
														End Site
														{
															OFFSET 0.000000 0.000000 0.000000
														}
													}
												}
											}
										}
										JOINT RightHandRing1
										{
											OFFSET -7.559013 0.014137 -2.865403
											CHANNELS 3 Xrotation Yrotation Zrotation
											JOINT RightHandRing2
											{
												OFFSET -3.449306 0.000000 0.000000
												CHANNELS 3 Xrotation Yrotation Zrotation
												JOINT RightHandRing3
												{
													OFFSET -3.362106 0.000000 0.000000
													CHANNELS 3 Xrotation Yrotation Zrotation
													JOINT RightHandRing4
													{
														OFFSET -2.076401 0.000000 0.000000
														CHANNELS 3 Xrotation Yrotation Zrotation
														End Site
														{
															OFFSET 0.000000 0.000000 0.000000
														}
													}
												}
											}
										}
									}
								}
							}
						}
					}
				}
			}
		}
	}
	JOINT LeftUpLeg
	{
		OFFSET 10.205400 -3.823500 0.155100
		CHANNELS 3 Xrotation Yrotation Zrotation
		JOINT LeftLeg
		{
			OFFSET 0.708757 -12.982077 0.567790
			CHANNELS 3 Xrotation Yrotation Zrotation
			JOINT LeftFoot
			{
				OFFSET -0.708756 -10.717838 -2.184338
				CHANNELS 3 Xrotation Yrotation Zrotation
				JOINT LeftToeBase
				{
					OFFSET 0.108149 -7.191104 7.560241
					CHANNELS 3 Xrotation Yrotation Zrotation
					JOINT LeftToe_End
					{
						OFFSET 0.070230 0.081724 4.490308
						CHANNELS 3 Xrotation Yrotation Zrotation
						End Site
						{
							OFFSET 0.000000 0.000000 0.000000
						}
					}
				}
			}
		}
	}
	JOINT RightUpLeg
	{
		OFFSET -10.205400 -3.823500 0.005500
		CHANNELS 3 Xrotation Yrotation Zrotation
		JOINT RightLeg
		{
			OFFSET -0.708756 -12.982134 0.610632
			CHANNELS 3 Xrotation Yrotation Zrotation
			JOINT RightFoot
			{
				OFFSET 0.708754 -10.717769 -1.945823
				CHANNELS 3 Xrotation Yrotation Zrotation
				JOINT RightToeBase
				{
					OFFSET -0.108140 -7.191069 7.372968
					CHANNELS 3 Xrotation Yrotation Zrotation
					JOINT RightToe_End
					{
						OFFSET -0.070227 0.081735 4.479403
						CHANNELS 3 Xrotation Yrotation Zrotation
						End Site
						{
							OFFSET 0.000000 0.000000 0.000000
						}
					}
				}
			}
		}
	}
}
MOTION
Frames: 4
Frame Time: 0.016667
0.348429 32.194901 -1.646012 -6.267764 -26.199672 1.684346 5.561450 -2.843067 -2.457903 1.469060 -2.839390 -0.460261 0.000000 0.000000 0.000000 1.463316 -2.694934 0.220313 2.455877 4.751716 1.127230 -0.495922 -18.984323 -3.620252 -0.000001 0.000002 0.000000 -0.595451 -16.332012 -20.041798 0.000000 0.000000 0.000000 12.420906 10.550269 -35.769728 0.000038 -96.391851 0.000057 -130.486338 -9.490874 13.341009 -12.800133 -17.470143 4.121614 1.000122 0.731309 -1.438301 -7.335829 -0.421713 13.147363 -0.000003 0.000002 -0.000004 -3.532557 4.254375 -63.954565 3.402082 5.315512 -65.218922 1.034644 3.326117 -34.549836 -0.000000 0.000003 -0.000002 2.434379 7.296054 -69.364068 3.297859 5.266366 -64.088655 0.787102 2.934912 -30.019556 0.000001 -0.000000 -0.000001 4.717033 8.075528 -77.582288 2.056301 4.456873 -49.517666 1.539982 3.959694 -42.490610 0.000003 0.000004 0.000001 0.930397 18.037666 10.376103 0.000000 0.000000 0.000000 6.836828 30.018931 41.382832 -0.000050 94.273549 -0.000016 -34.121050 -22.154922 26.633995 20.470557 7.475574 18.843587 4.151699 -12.160923 -33.848006 -6.346089 -41.944065 -36.535457 0.000003 -0.000001 -0.000004 -0.887086 1.427985 12.684530 1.917406 -3.767472 53.934329 3.057993 -4.374564 69.896796 -0.000001 0.000001 -0.000000 0.770897 -5.199587 54.618830 5.563879 -4.568269 101.238594 4.771478 -4.655771 91.407882 0.000003 0.000000 -0.000001 6.934479 -8.544287 63.908775 2.909309 -4.317406 67.934708 1.862851 -3.727209 53.099451 0.000000 0.000002 -0.000001 -13.337612 9.896308 10.892086 38.299562 7.315752 0.697298 -8.836637 21.446415 -12.331389 -1.035855 0.022711 -1.255894 0.000000 0.000001 0.000000 1.356878 -34.418464 -12.450360 38.655401 9.718337 -6.208918 -36.057819 -22.803925 5.724029 -2.342221 0.000022 0.000005 -0.000001 0.000002 0.000000 
0.245755 32.238056 -1.598291 -6.321883 -26.898991 1.582540 5.590249 -2.726534 -2.439229 1.469655 -2.769734 -0.466834 0.000000 0.000000 0.000000 1.463646 -2.627374 0.198466 2.455875 4.751705 1.127231 -0.517745 -18.807909 -3.545888 -0.000000 -0.000000 -0.000000 -0.595451 -16.332015 -20.041797 0.000000 0.000000 0.000000 11.979348 10.162483 -35.915409 0.000025 -96.251142 0.000037 -130.145143 -9.203671 13.619407 -12.800129 -17.470143 4.121614 1.000122 0.731310 -1.438300 -7.335831 -0.421710 13.147365 -0.000003 0.000005 -0.000002 -3.532556 4.254375 -63.954565 3.402084 5.315509 -65.218915 1.034640 3.326116 -34.549839 -0.000002 0.000002 -0.000002 2.434383 7.296064 -69.364061 3.297860 5.266367 -64.088655 0.787101 2.934912 -30.019562 0.000002 -0.000002 0.000000 4.717034 8.075530 -77.582281 2.056297 4.456870 -49.517663 1.539981 3.959695 -42.490607 0.000003 0.000000 0.000001 0.928831 18.095138 10.321569 0.000000 0.000000 0.000000 7.039707 29.557377 41.115034 0.000079 94.754449 -0.000107 -34.318736 -22.151514 26.224426 20.470560 7.475575 18.843590 4.151699 -12.160929 -33.848006 -6.346087 -41.944062 -36.535464 -0.000002 -0.000005 -0.000003 -0.887087 1.427985 12.684530 1.917408 -3.767473 53.934326 3.057998 -4.374565 69.896796 -0.000000 0.000001 0.000000 0.770895 -5.199590 54.618841 5.563879 -4.568269 101.238594 4.771478 -4.655769 91.407882 0.000001 -0.000000 -0.000001 6.934484 -8.544285 63.908775 2.909311 -4.317404 67.934708 1.862848 -3.727210 53.099448 -0.000000 -0.000002 0.000001 -13.118303 9.914508 10.991192 38.743633 7.112290 0.735278 -8.693741 22.217376 -12.093528 -1.256795 0.033381 -1.520938 -0.000000 0.000000 -0.000000 1.571722 -34.070906 -12.203303 38.275670 9.658108 -6.202564 -35.841209 -22.433603 5.669936 -2.342216 0.000020 0.000005 0.000000 -0.000000 0.000000 
0.148510 32.281792 -1.552047 -6.377590 -27.597956 1.478762 5.616981 -2.598763 -2.420426 1.470252 -2.697852 -0.473616 0.000000 0.000000 0.000000 1.463943 -2.557636 0.176190 2.455877 4.751714 1.127230 -0.552616 -18.607532 -3.469239 0.000000 0.000002 0.000000 -0.595451 -16.332015 -20.041795 0.000000 0.000000 0.000000 11.555113 9.778291 -36.062285 -0.000010 -96.110303 0.000004 -129.807445 -8.910030 13.881129 -12.800137 -17.470152 4.121610 1.000123 0.731311 -1.438307 -7.335831 -0.421713 13.147360 -0.000001 -0.000001 -0.000002 -3.532559 4.254372 -63.954565 3.402081 5.315509 -65.218915 1.034644 3.326115 -34.549843 0.000002 0.000001 -0.000001 2.434379 7.296052 -69.364061 3.297861 5.266367 -64.088655 0.787099 2.934913 -30.019562 0.000002 -0.000002 -0.000001 4.717035 8.075530 -77.582288 2.056304 4.456870 -49.517669 1.539972 3.959694 -42.490610 0.000000 0.000001 0.000001 0.926490 18.152631 10.275624 0.000000 0.000000 0.000000 7.261014 29.087546 40.849162 -0.000127 95.247487 0.000098 -34.508339 -22.138986 25.801856 20.470558 7.475572 18.843587 4.151706 -12.160926 -33.848010 -6.346094 -41.944065 -36.535461 0.000003 -0.000003 -0.000001 -0.887084 1.427987 12.684525 1.917406 -3.767472 53.934326 3.057994 -4.374563 69.896796 0.000001 -0.000001 -0.000000 0.770898 -5.199591 54.618834 5.563879 -4.568269 101.238587 4.771477 -4.655769 91.407875 -0.000001 0.000000 0.000000 6.934483 -8.544284 63.908775 2.909308 -4.317402 67.934714 1.862852 -3.727209 53.099455 -0.000000 -0.000000 0.000004 -12.805357 9.946769 11.084758 39.032441 6.999745 0.762070 -8.523968 22.900740 -11.948769 -1.455484 0.044695 -1.758384 0.000000 0.000000 -0.000000 1.776048 -33.686404 -11.965768 37.896219 9.542329 -6.191374 -35.602771 -22.048945 5.652961 -2.342220 0.000018 0.000007 -0.000000 -0.000000 -0.000000 
0.045061 32.326183 -1.502711 -6.434973 -28.296564 1.375182 5.642149 -2.462686 -2.403102 1.470857 -2.625020 -0.480489 0.000000 0.000000 0.000000 1.464209 -2.487026 0.153859 2.455875 4.751706 1.127229 -0.597448 -18.386463 -3.389412 0.000001 0.000002 -0.000000 -0.595450 -16.332010 -20.041800 0.000000 0.000000 0.000000 11.157878 9.410640 -36.208984 -0.000021 -95.973870 -0.000062 -129.478448 -8.615257 14.116825 -12.800133 -17.470147 4.121611 1.000124 0.731307 -1.438301 -7.335831 -0.421710 13.147364 -0.000001 0.000002 -0.000000 -3.532556 4.254374 -63.954565 3.402079 5.315514 -65.218915 1.034645 3.326116 -34.549846 0.000001 -0.000002 0.000000 2.434380 7.296057 -69.364061 3.297857 5.266369 -64.088655 0.787100 2.934912 -30.019559 0.000002 -0.000000 0.000000 4.717034 8.075529 -77.582281 2.056301 4.456873 -49.517659 1.539980 3.959695 -42.490610 0.000004 -0.000003 -0.000001 0.923541 18.206697 10.240301 0.000000 0.000000 0.000000 7.499882 28.626718 40.584660 -0.000035 95.740674 -0.000024 -34.687280 -22.112934 25.372705 20.470555 7.475574 18.843590 4.151702 -12.160926 -33.848006 -6.346089 -41.944065 -36.535461 0.000003 0.000001 -0.000002 -0.887086 1.427983 12.684526 1.917405 -3.767475 53.934326 3.057994 -4.374563 69.896796 -0.000001 -0.000002 -0.000000 0.770895 -5.199591 54.618830 5.563878 -4.568268 101.238587 4.771478 -4.655768 91.407875 0.000000 -0.000000 -0.000002 6.934482 -8.544288 63.908775 2.909310 -4.317401 67.934714 1.862849 -3.727206 53.099451 -0.000001 0.000000 -0.000001 -12.608482 9.976967 11.132267 39.244232 6.986930 0.781686 -8.313885 23.253473 -11.827478 -1.646040 0.056196 -1.970186 -0.000000 -0.000001 0.000000 2.023366 -33.281121 -11.709924 37.477224 9.380116 -6.171738 -35.354931 -21.648565 5.660802 -2.342216 0.000021 0.000005 0.000000 -0.000002 0.000000 
